<svg width="87" height="90" viewBox="0 0 87 90" fill="none" xmlns="http://www.w3.org/2000/svg">
<rect width="87" height="90" rx="43.5" fill="#3942F7"/>
<path d="M32.3535 35.9542C33.2475 35.9542 33.9707 35.3238 33.9707 34.5445V26.3602C33.9707 25.581 33.2475 24.9505 32.3535 24.9505C31.4596 24.9505 30.7363 25.581 30.7363 26.3602V34.5445C30.7363 35.3238 31.4596 35.9542 32.3535 35.9542ZM59.8906 41.5932H54.5C54.5 40.0346 53.0535 38.7737 51.2656 38.7737H28.9844C27.1965 38.7737 25.75 40.0346 25.75 41.5932V51.3046C25.75 51.4378 25.759 51.567 25.7814 51.6923C25.759 51.9664 25.75 52.2405 25.75 52.5186C25.75 59.438 32.1873 65.0495 40.125 65.0495C47.317 65.0495 53.2736 60.4483 54.3338 54.4374H59.8906C61.6785 54.4374 63.125 53.1764 63.125 51.6179V44.4126C63.125 42.8541 61.6785 41.5932 59.8906 41.5932ZM51.2656 51.6179H51.2162C51.2477 51.9155 51.2656 52.2131 51.2656 52.5186C51.2656 57.8834 46.2793 62.23 40.125 62.23C33.9707 62.23 28.9844 57.8834 28.9844 52.5186C28.9844 52.2131 29.0023 51.9155 29.0338 51.6179H28.9844V41.5932H51.2656V51.6179ZM59.8906 51.3046H54.8594V44.4126H59.8906V51.3046ZM47.5371 35.9542C48.4311 35.9542 49.1543 35.3238 49.1543 34.5445V26.3602C49.1543 25.581 48.4311 24.9505 47.5371 24.9505C46.6432 24.9505 45.9199 25.581 45.9199 26.3602V34.5445C45.9199 35.3238 46.6432 35.9542 47.5371 35.9542ZM39.9004 35.9542C40.7943 35.9542 41.5176 35.3238 41.5176 34.5445V26.3602C41.5176 25.581 40.7943 24.9505 39.9004 24.9505C39.0064 24.9505 38.2832 25.581 38.2832 26.3602V34.5445C38.2832 35.3238 39.0064 35.9542 39.9004 35.9542Z" fill="#EDF2F7"/>
</svg>
