<svg width="40" height="40" viewBox="0 0 40 40" fill="none" xmlns="http://www.w3.org/2000/svg">
<path d="M18.3333 15H21.6667V9.99999H26.6667V6.66666H21.6667V1.66666H18.3333V6.66666H13.3333V9.99999H18.3333V15ZM11.6667 30C9.83332 30 8.34999 31.5 8.34999 33.3333C8.34999 35.1667 9.83332 36.6667 11.6667 36.6667C13.5 36.6667 15 35.1667 15 33.3333C15 31.5 13.5 30 11.6667 30ZM28.3333 30C26.5 30 25.0167 31.5 25.0167 33.3333C25.0167 35.1667 26.5 36.6667 28.3333 36.6667C30.1667 36.6667 31.6667 35.1667 31.6667 33.3333C31.6667 31.5 30.1667 30 28.3333 30ZM11.95 24.5833L12 24.3833L13.5 21.6667H25.9167C27.1667 21.6667 28.2667 20.9833 28.8333 19.95L35.2667 8.26666L32.3667 6.66666H32.35L30.5167 9.99999L25.9167 18.3333H14.2167L14 17.8833L10.2667 9.99999L8.68332 6.66666L7.11666 3.33332H1.66666V6.66666H4.99999L11 19.3167L8.74999 23.4C8.48332 23.8667 8.33332 24.4167 8.33332 25C8.33332 26.8333 9.83332 28.3333 11.6667 28.3333H31.6667V25H12.3667C12.15 25 11.95 24.8167 11.95 24.5833Z" fill="#EDF2F7"/>
</svg>
