<svg width="432" height="361" viewBox="0 0 432 361" fill="none" xmlns="http://www.w3.org/2000/svg">
<g clip-path="url(#clip0_5_70)">
<path d="M20.0736 343.995C26.0659 355.119 38.7836 359.895 38.7836 359.895C38.7836 359.895 41.786 346.634 35.7937 335.51C29.8014 324.385 17.0837 319.61 17.0837 319.61C17.0837 319.61 14.0813 332.871 20.0736 343.995Z" fill="#2F2E41"/>
<path d="M24.1923 340.335C35.0108 346.851 39.1773 359.792 39.1773 359.792C39.1773 359.792 25.8036 362.17 14.9851 355.655C4.16656 349.139 0 336.198 0 336.198C0 336.198 13.3737 333.82 24.1923 340.335Z" fill="#3942F7"/>
<path d="M266.745 17.3305H199.245V18.2958H266.745V17.3305Z" fill="#F2F2F2"/>
<path d="M248.423 18.0544H247.459V26.9833H248.423V18.0544Z" fill="#F2F2F2"/>
<path d="M219.013 18.0544H218.048V26.9833H219.013V18.0544Z" fill="#F2F2F2"/>
<path d="M300.977 63.6638H233.477V64.6291H300.977V63.6638Z" fill="#F2F2F2"/>
<path d="M252.763 54.9763H251.798V63.9051H252.763V54.9763Z" fill="#F2F2F2"/>
<path d="M282.173 54.9763H281.209V63.9051H282.173V54.9763Z" fill="#F2F2F2"/>
<path d="M390.656 85.3826H323.156V86.3478H390.656V85.3826Z" fill="#F2F2F2"/>
<path d="M342.441 76.6951H341.477V85.6239H342.441V76.6951Z" fill="#F2F2F2"/>
<path d="M371.852 76.6951H370.888V85.6239H371.852V76.6951Z" fill="#F2F2F2"/>
<path d="M383.906 309.327H316.406V310.292H383.906V309.327Z" fill="#F2F2F2"/>
<path d="M335.691 300.639H334.727V309.568H335.691V300.639Z" fill="#F2F2F2"/>
<path d="M365.102 300.639H364.138V309.568H365.102V300.639Z" fill="#F2F2F2"/>
<path d="M268.673 154.4H201.173V155.365H268.673V154.4Z" fill="#F2F2F2"/>
<path d="M220.459 145.712H219.495V154.641H220.459V145.712Z" fill="#F2F2F2"/>
<path d="M249.87 145.712H248.906V154.641H249.87V145.712Z" fill="#F2F2F2"/>
<path d="M289.888 270.716H222.388V271.681H289.888V270.716Z" fill="#F2F2F2"/>
<path d="M241.674 262.028H240.709V270.957H241.674V262.028Z" fill="#F2F2F2"/>
<path d="M271.084 262.028H270.12V270.957H271.084V262.028Z" fill="#F2F2F2"/>
<path d="M397.888 235.483H330.388V236.448H397.888V235.483Z" fill="#F2F2F2"/>
<path d="M349.673 226.796H348.709V235.725H349.673V226.796Z" fill="#F2F2F2"/>
<path d="M379.084 226.796H378.12V235.725H379.084V226.796Z" fill="#F2F2F2"/>
<path d="M174.565 338.901H60.3999V338.079H173.743V298.204H69.9974L64.9576 287.693L65.6982 287.338L70.5143 297.381H174.565V338.901Z" fill="#2F2E41"/>
<path d="M75.5944 359.044C80.3573 359.044 84.2184 355.179 84.2184 350.412C84.2184 345.644 80.3573 341.779 75.5944 341.779C70.8315 341.779 66.9705 345.644 66.9705 350.412C66.9705 355.179 70.8315 359.044 75.5944 359.044Z" fill="#3F3D56"/>
<path d="M160.602 359.044C165.365 359.044 169.226 355.179 169.226 350.412C169.226 345.644 165.365 341.779 160.602 341.779C155.839 341.779 151.978 345.644 151.978 350.412C151.978 355.179 155.839 359.044 160.602 359.044Z" fill="#3F3D56"/>
<path d="M260.804 172.411C263.753 172.411 266.143 170.018 266.143 167.067C266.143 164.115 263.753 161.723 260.804 161.723C257.856 161.723 255.466 164.115 255.466 167.067C255.466 170.018 257.856 172.411 260.804 172.411Z" fill="#3F3D56"/>
<path d="M186.775 284.638H58.4535L30.6877 193.788H215.37L215.202 194.322L186.775 284.638ZM59.0611 283.816H186.173L214.25 194.61H31.7978L59.0611 283.816Z" fill="#2F2E41"/>
<path d="M176.758 279.91H64.0489L39.6611 199.337H201.874L201.726 199.811L176.758 279.91Z" fill="#F2F2F2"/>
<path d="M217.671 185.671L216.876 185.46L222.296 165.011H253.823V165.834H222.928L217.671 185.671Z" fill="#2F2E41"/>
<path d="M206.141 221.33H39.6604V222.153H206.141V221.33Z" fill="#2F2E41"/>
<path d="M196.607 251.621H48.9177V252.443H196.607V251.621Z" fill="#2F2E41"/>
<path d="M123.437 194.199H122.615V284.227H123.437V194.199Z" fill="#2F2E41"/>
<path d="M160.209 194.173L154.313 284.199L155.133 284.252L161.029 194.227L160.209 194.173Z" fill="#2F2E41"/>
<path d="M85.8603 194.172L85.0405 194.225L90.9021 284.253L91.7218 284.2L85.8603 194.172Z" fill="#2F2E41"/>
<path d="M432 359.566H0V360.531H432V359.566Z" fill="#2F2E41"/>
<path d="M287.073 29.8638C287.073 29.8638 294.121 49.9445 289.784 53.0339C285.446 56.1233 304.422 81.353 304.422 81.353L327.193 75.1743L314.724 54.0637C314.724 54.0637 313.097 32.9531 313.097 29.8637C313.097 26.7744 287.073 29.8638 287.073 29.8638Z" fill="#A0616A"/>
<path opacity="0.1" d="M287.073 29.8638C287.073 29.8638 294.121 49.9445 289.784 53.0339C285.446 56.1233 304.422 81.353 304.422 81.353L327.193 75.1743L314.724 54.0637C314.724 54.0637 313.097 32.9531 313.097 29.8637C313.097 26.7744 287.073 29.8638 287.073 29.8638Z" fill="black"/>
<path d="M275.243 173.004C275.243 173.004 273.185 198.748 275.243 212.136C277.3 225.523 280.386 262.595 280.386 262.595C280.386 262.595 280.386 332.62 291.702 333.65C303.018 334.68 311.248 335.71 312.277 331.591C313.305 327.471 307.133 325.412 310.219 323.352C313.305 321.293 314.334 314.084 310.219 305.846C306.104 297.608 310.219 214.195 310.219 214.195L329.765 266.714C329.765 266.714 331.823 309.965 333.88 316.144C335.937 322.323 331.823 333.65 339.024 334.68C346.225 335.71 354.454 329.531 358.569 327.471C362.684 325.412 352.397 325.412 354.454 324.382C356.512 323.352 362.684 320.263 360.627 319.233C358.569 318.203 356.512 268.774 356.512 268.774C356.512 268.774 350.854 163.221 343.653 159.102C336.452 154.983 331.823 162.078 331.823 162.078L275.243 173.004Z" fill="#2F2E41"/>
<path d="M293.76 329.531V337.769C293.76 337.769 284.501 360.164 293.76 360.164C303.018 360.164 310.219 362.484 310.219 359.395V331.591L293.76 329.531Z" fill="#2F2E41"/>
<path d="M354.454 329.516V337.755C354.454 337.755 363.713 360.149 354.454 360.149C345.196 360.149 337.995 362.47 337.995 359.38V331.576L354.454 329.516Z" fill="#2F2E41"/>
<path d="M301.475 44.7956C311.702 44.7956 319.992 36.4967 319.992 26.2595C319.992 16.0223 311.702 7.72339 301.475 7.72339C291.248 7.72339 282.958 16.0223 282.958 26.2595C282.958 36.4967 291.248 44.7956 301.475 44.7956Z" fill="#A0616A"/>
<path d="M295.817 60.7573C295.817 60.7573 300.961 76.2041 309.191 73.1147L317.42 70.0253L331.823 168.885C331.823 168.885 320.507 185.361 304.047 175.063C287.587 164.766 295.817 60.7573 295.817 60.7573Z" fill="#3942F7"/>
<path d="M310.219 57.6679L314.849 47.885C314.849 47.885 342.11 60.7573 346.225 64.8764C350.34 68.9956 350.34 75.1743 350.34 75.1743L343.138 100.919C343.138 100.919 345.196 157.557 345.196 159.617C345.196 161.676 352.397 173.004 347.253 168.885C342.11 164.766 341.081 160.646 336.966 166.825C332.851 173.004 323.593 180.212 323.593 180.212L310.219 57.6679Z" fill="#3F3D56"/>
<path d="M346.225 131.812L343.138 160.646C343.138 160.646 324.621 177.123 328.736 178.153C332.851 179.183 334.909 175.063 334.909 175.063C334.909 175.063 342.11 182.272 346.225 178.153C350.34 174.034 360.627 134.902 360.627 134.902L346.225 131.812Z" fill="#A0616A"/>
<path d="M301.87 0.0626808C297.765 -0.0842199 293.372 -0.156887 289.91 2.05753C288.318 3.16885 286.921 4.53755 285.777 6.10761C282.406 10.3734 279.494 15.7407 280.746 21.0334L282.2 20.4656C282.2 21.8784 281.886 23.2735 281.282 24.55C281.486 23.9539 282.172 24.9175 281.989 25.5205L280.387 30.7816C283.02 29.8152 286.296 31.7719 286.697 34.5508C286.88 28.4401 287.513 21.4329 292.465 17.8548C294.963 16.0504 298.123 15.4995 301.164 15.0104C303.969 14.5591 306.91 14.1288 309.597 15.0532C312.284 15.9777 314.572 18.7285 313.963 21.5066C315.202 21.0793 316.588 21.9437 317.2 23.1034C317.812 24.2631 317.844 25.6312 317.863 26.9428C319.183 27.8771 320.686 26.0219 321.225 24.4953C322.488 20.912 323.611 17.0977 322.93 13.3594C322.25 9.62105 319.207 6.0485 315.411 6.03583C315.871 5.52922 316.117 4.86306 316.096 4.17827L312.967 3.91364C313.762 3.80106 314.492 3.41553 315.034 2.8231C313.778 4.20679 303.901 0.135371 301.87 0.0626808Z" fill="#2F2E41"/>
<path d="M300.961 54.5786C300.961 54.5786 292.586 46.3637 289.572 46.8669C286.559 47.3701 282.444 54.5786 282.444 54.5786C282.444 54.5786 257.754 62.8169 258.783 71.0551C259.812 79.2934 271.128 119.455 271.128 119.455C271.128 119.455 280.386 167.855 272.156 173.004C263.927 178.153 311.248 191.54 312.277 185.361C313.305 179.183 315.363 117.395 312.277 108.127C309.191 98.8593 300.961 54.5786 300.961 54.5786Z" fill="#3F3D56"/>
<path d="M336.966 71.0551H349.687C349.687 71.0551 358.57 110.187 359.598 114.306C360.627 118.425 362.684 137.991 361.656 137.991C360.627 137.991 340.052 133.872 340.052 136.961L336.966 71.0551Z" fill="#3F3D56"/>
<path d="M336.536 167.958H287.839C283.087 146.075 282.69 124.933 287.839 104.733H336.536C328.677 124.569 328.186 145.567 336.536 167.958Z" fill="#F2F2F2"/>
<path d="M268.042 141.08L282.444 147.259C282.444 147.259 310.219 151.378 310.219 140.051C310.219 128.723 282.444 134.902 282.444 134.902L273.185 131.938L268.042 141.08Z" fill="#A0616A"/>
<path d="M271.128 64.8764L258.783 67.9658L249.524 122.544C249.524 122.544 246.438 136.961 251.582 137.991C256.725 139.021 271.128 147.259 271.128 147.259C271.128 147.259 273.185 131.812 277.3 131.812L267.013 123.574L273.185 87.5317L271.128 64.8764Z" fill="#3F3D56"/>
<path d="M96.5483 170.327H29.0483V171.292H96.5483V170.327Z" fill="#F2F2F2"/>
<path d="M48.3342 161.639H47.3699V170.568H48.3342V161.639Z" fill="#F2F2F2"/>
<path d="M77.7448 161.639H76.7805V170.568H77.7448V161.639Z" fill="#F2F2F2"/>
<path d="M120.173 27.4659H52.6733V28.4312H120.173V27.4659Z" fill="#F2F2F2"/>
<path d="M101.852 28.1899H100.888V37.1187H101.852V28.1899Z" fill="#F2F2F2"/>
<path d="M72.4413 28.1899H71.4771V37.1187H72.4413V28.1899Z" fill="#F2F2F2"/>
<path d="M188.156 122.546H120.656V123.511H188.156V122.546Z" fill="#F2F2F2"/>
<path d="M169.834 123.27H168.87V132.199H169.834V123.27Z" fill="#F2F2F2"/>
<path d="M140.423 123.27H139.459V132.199H140.423V123.27Z" fill="#F2F2F2"/>
<path d="M73.4055 122.063H5.90552V123.028H73.4055V122.063Z" fill="#F2F2F2"/>
<path d="M55.0842 122.787H54.1199V131.716H55.0842V122.787Z" fill="#F2F2F2"/>
<path d="M25.6733 122.787H24.709V131.716H25.6733V122.787Z" fill="#F2F2F2"/>
<path d="M154.406 73.7992H86.9055V74.7645H154.406V73.7992Z" fill="#F2F2F2"/>
<path d="M106.191 65.1117H105.227V74.0405H106.191V65.1117Z" fill="#F2F2F2"/>
<path d="M135.602 65.1117H134.638V74.0405H135.602V65.1117Z" fill="#F2F2F2"/>
</g>
<defs>
<clipPath id="clip0_5_70">
<rect width="432" height="361" fill="white"/>
</clipPath>
</defs>
</svg>
