<svg width="214" height="40" viewBox="0 0 214 40" fill="none" xmlns="http://www.w3.org/2000/svg">
<g id="logoName">
<g id="react-icons/ai/AiOutlineCoffee">
<path id="Vector" d="M10.7422 10.9766C11.5195 10.9766 12.1484 10.3477 12.1484 9.57031V1.40625C12.1484 0.628906 11.5195 0 10.7422 0C9.96484 0 9.33594 0.628906 9.33594 1.40625V9.57031C9.33594 10.3477 9.96484 10.9766 10.7422 10.9766ZM34.6875 16.6016H30C30 15.0469 28.7422 13.7891 27.1875 13.7891H7.8125C6.25781 13.7891 5 15.0469 5 16.6016V26.2891C5 26.4219 5.00781 26.5508 5.02734 26.6758C5.00781 26.9492 5 27.2227 5 27.5C5 34.4023 10.5977 40 17.5 40C23.7539 40 28.9336 35.4102 29.8555 29.4141H34.6875C36.2422 29.4141 37.5 28.1562 37.5 26.6016V19.4141C37.5 17.8594 36.2422 16.6016 34.6875 16.6016ZM27.1875 26.6016H27.1445C27.1719 26.8984 27.1875 27.1953 27.1875 27.5C27.1875 32.8516 22.8516 37.1875 17.5 37.1875C12.1484 37.1875 7.8125 32.8516 7.8125 27.5C7.8125 27.1953 7.82813 26.8984 7.85547 26.6016H7.8125V16.6016H27.1875V26.6016ZM34.6875 26.2891H30.3125V19.4141H34.6875V26.2891ZM23.9453 10.9766C24.7227 10.9766 25.3516 10.3477 25.3516 9.57031V1.40625C25.3516 0.628906 24.7227 0 23.9453 0C23.168 0 22.5391 0.628906 22.5391 1.40625V9.57031C22.5391 10.3477 23.168 10.9766 23.9453 10.9766ZM17.3047 10.9766C18.082 10.9766 18.7109 10.3477 18.7109 9.57031V1.40625C18.7109 0.628906 18.082 0 17.3047 0C16.5273 0 15.8984 0.628906 15.8984 1.40625V9.57031C15.8984 10.3477 16.5273 10.9766 17.3047 10.9766Z" fill="#EDF2F7"/>
</g>
<path id="DevCommerce" d="M59.16 13.784C61.336 13.784 63.056 14.088 64.32 14.696C65.6 15.288 66.568 15.952 67.224 16.688C67.752 17.296 68.184 18 68.52 18.8C68.856 19.584 69.024 20.528 69.024 21.632C69.024 22.448 68.84 23.304 68.472 24.2C68.104 25.08 67.624 25.792 67.032 26.336C66.408 26.928 65.816 27.408 65.256 27.776C64.712 28.144 63.968 28.448 63.024 28.688C62.096 28.912 60.912 29.024 59.472 29.024C58.384 29.024 57.4 28.904 56.52 28.664C55.64 28.408 55.2 27.984 55.2 27.392C55.2 27.152 55.304 26.968 55.512 26.84C55.736 26.696 55.976 26.624 56.232 26.624C56.376 26.624 56.472 26.632 56.52 26.648C56.632 25.592 56.688 24.472 56.688 23.288C56.688 21.96 56.656 20.864 56.592 20C56.528 19.12 56.44 18.248 56.328 17.384C56.312 17.272 56.272 16.96 56.208 16.448C56.16 15.936 56.136 15.416 56.136 14.888C56.136 14.552 56.304 14.272 56.64 14.048C56.976 13.808 57.32 13.688 57.672 13.688C57.88 13.688 58.16 13.704 58.512 13.736C58.8 13.768 59.016 13.784 59.16 13.784ZM58.848 26.768C59.232 26.832 59.736 26.864 60.36 26.864C61.416 26.864 62.416 26.648 63.36 26.216C64.304 25.768 65.064 25.152 65.64 24.368C66.216 23.568 66.504 22.648 66.504 21.608C66.504 20.52 66.312 19.592 65.928 18.824C65.544 18.056 64.952 17.424 64.152 16.928C63.56 16.56 62.832 16.296 61.968 16.136C61.104 15.96 60.064 15.872 58.848 15.872C58.848 16.256 58.872 16.736 58.92 17.312C58.92 17.504 58.936 17.84 58.968 18.32C59.064 20.176 59.112 21.672 59.112 22.808C59.112 24.456 59.024 25.776 58.848 26.768ZM70.9706 23.912C70.9706 23.304 71.0826 22.696 71.3066 22.088C71.5306 21.464 71.8266 20.896 72.1946 20.384C72.5626 19.872 73.1466 19.456 73.9466 19.136C74.7466 18.8 75.4586 18.632 76.0826 18.632C76.7226 18.632 77.3706 18.72 78.0266 18.896C78.6986 19.072 79.1626 19.344 79.4186 19.712C80.0106 20.544 80.3066 21.36 80.3066 22.16C80.3066 22.592 80.2106 22.96 80.0186 23.264C79.8426 23.568 79.5866 23.896 79.2506 24.248C78.9786 24.536 78.5466 24.728 77.9546 24.824C77.3786 24.92 76.8026 24.968 76.2266 24.968C75.8586 24.968 75.4106 24.936 74.8826 24.872C74.3546 24.792 73.8426 24.696 73.3466 24.584C73.3786 24.904 73.4586 25.216 73.5866 25.52C73.7146 25.824 73.8666 26.056 74.0426 26.216C74.3626 26.52 74.6906 26.712 75.0266 26.792C75.3786 26.872 75.8266 26.912 76.3706 26.912C76.9466 26.912 77.4826 26.816 77.9786 26.624C78.3786 26.48 78.7066 26.408 78.9626 26.408C79.2666 26.408 79.4986 26.504 79.6586 26.696C79.8186 26.872 79.8986 27.104 79.8986 27.392C79.8986 27.792 79.6666 28.12 79.2026 28.376C78.7386 28.632 78.2026 28.824 77.5946 28.952C77.0026 29.064 76.5226 29.12 76.1546 29.12C75.4026 29.12 74.6746 28.984 73.9706 28.712C73.2666 28.44 72.6826 28.056 72.2186 27.56C71.8346 27.112 71.5306 26.576 71.3066 25.952C71.0826 25.312 70.9706 24.632 70.9706 23.912ZM76.2026 20.672C75.8506 20.672 75.4986 20.744 75.1466 20.888C74.7946 21.016 74.5066 21.2 74.2826 21.44C73.9946 21.744 73.7946 21.992 73.6826 22.184C73.5866 22.36 73.5226 22.608 73.4906 22.928C73.8906 23.056 74.7226 23.12 75.9866 23.12C76.6746 23.12 77.2026 23.016 77.5706 22.808C77.9546 22.6 78.1466 22.328 78.1466 21.992C78.1466 21.656 77.9386 21.352 77.5226 21.08C77.1066 20.808 76.6666 20.672 76.2026 20.672ZM88.1681 22.832C88.2161 22.704 88.3841 22.24 88.6721 21.44C88.9761 20.64 89.2561 20.032 89.5121 19.616C89.9281 18.96 90.2961 18.632 90.6161 18.632C91.0641 18.632 91.4081 18.72 91.6481 18.896C91.8881 19.056 92.0081 19.288 92.0081 19.592C92.0081 19.736 91.9441 19.936 91.8161 20.192C91.7041 20.448 91.6401 20.6 91.6241 20.648C90.9841 22.056 90.4081 23.568 89.8961 25.184L89.3921 27.056C89.2001 27.664 88.8721 28.16 88.4081 28.544C87.9441 28.912 87.4001 29.096 86.7761 29.096C86.2161 29.096 85.6961 28.84 85.2161 28.328C84.9281 27.88 84.6241 27.312 84.3041 26.624C84.0001 25.936 83.7361 25.264 83.5121 24.608L82.6721 22.088C82.4961 21.592 82.3521 21.168 82.2401 20.816C82.1441 20.464 82.0961 20.144 82.0961 19.856C82.0801 19.52 82.1761 19.248 82.3841 19.04C82.5921 18.832 82.8801 18.728 83.2481 18.728C83.6641 18.728 83.9601 18.816 84.1361 18.992C84.3121 19.152 84.4721 19.408 84.6161 19.76C84.6801 20.128 84.8561 20.88 85.1441 22.016L85.3121 22.688C85.4561 23.232 85.6401 23.784 85.8641 24.344C86.0881 24.904 86.3121 25.44 86.5361 25.952C86.5041 25.872 86.6161 26.136 86.8721 26.744C87.0321 26.28 87.2161 25.712 87.4241 25.04L88.1681 22.832ZM105.878 16.112C106.118 16.4 106.286 16.632 106.382 16.808C106.478 16.984 106.526 17.152 106.526 17.312C106.526 17.504 106.398 17.728 106.142 17.984C105.902 18.24 105.662 18.368 105.422 18.368C105.102 18.368 104.846 18.32 104.654 18.224C104.462 18.128 104.302 17.976 104.174 17.768C103.87 17.288 103.518 16.864 103.118 16.496C102.718 16.112 102.182 15.92 101.51 15.92C100.854 15.92 100.118 16.072 99.3015 16.376C98.4855 16.68 97.8855 17.056 97.5015 17.504C96.6375 18.56 96.2055 19.96 96.2055 21.704C96.2055 23.096 96.6375 24.288 97.5015 25.28C98.4135 26.304 99.5655 26.816 100.958 26.816C101.598 26.816 102.294 26.704 103.046 26.48C103.814 26.24 104.422 25.856 104.87 25.328H104.846C105.134 25.024 105.494 24.872 105.926 24.872C106.182 24.872 106.422 24.984 106.646 25.208C106.886 25.432 107.006 25.656 107.006 25.88C107.006 26.12 106.966 26.336 106.886 26.528C106.822 26.704 106.694 26.904 106.502 27.128C105.846 27.848 105.006 28.352 103.982 28.64C102.974 28.912 101.822 29.048 100.526 29.048C99.4535 29.048 98.4215 28.792 97.4295 28.28C96.4535 27.768 95.6455 27.12 95.0055 26.336C94.6855 25.872 94.3735 25.208 94.0695 24.344C93.7815 23.464 93.6375 22.752 93.6375 22.208C93.6375 20.816 93.8455 19.496 94.2615 18.248C94.6935 16.984 95.3335 15.976 96.1815 15.224C96.7415 14.712 97.5495 14.328 98.6055 14.072C99.6615 13.816 100.63 13.688 101.51 13.688C102.214 13.688 102.814 13.792 103.31 14C103.822 14.192 104.262 14.456 104.63 14.792C104.998 15.112 105.414 15.552 105.878 16.112ZM118.587 21.296C118.715 21.52 118.819 21.848 118.899 22.28C118.979 22.696 119.019 23.072 119.019 23.408C119.019 23.84 118.971 24.32 118.875 24.848C118.779 25.376 118.691 25.784 118.611 26.072C117.507 28.088 115.875 29.096 113.715 29.096C112.915 29.096 112.099 28.832 111.267 28.304C110.435 27.776 109.859 27.168 109.539 26.48C109.107 25.12 108.891 24.248 108.891 23.864C108.891 23.224 109.027 22.544 109.299 21.824C109.587 21.104 109.947 20.48 110.379 19.952C110.667 19.584 111.163 19.272 111.867 19.016C112.571 18.744 113.211 18.608 113.787 18.608C114.907 18.608 115.851 18.824 116.619 19.256C117.403 19.672 118.059 20.352 118.587 21.296ZM116.499 25.16C116.579 25 116.619 24.464 116.619 23.552C116.619 23.088 116.531 22.632 116.355 22.184C116.195 21.736 115.955 21.352 115.635 21.032C115.603 21 115.515 20.952 115.371 20.888C115.227 20.808 115.027 20.736 114.771 20.672C114.531 20.592 114.251 20.552 113.931 20.552C113.035 20.552 112.379 20.912 111.963 21.632C111.547 22.352 111.339 23.168 111.339 24.08C111.339 24.224 111.387 24.52 111.483 24.968C111.579 25.416 111.651 25.704 111.699 25.832C111.827 26.056 112.083 26.32 112.467 26.624C112.867 26.912 113.299 27.056 113.763 27.056C114.483 27.056 115.051 26.888 115.467 26.552C115.899 26.2 116.243 25.736 116.499 25.16ZM121.295 20.744C120.895 20.408 120.695 20.016 120.695 19.568C120.695 19.344 120.807 19.144 121.031 18.968C121.255 18.776 121.527 18.68 121.847 18.68C122.423 18.68 122.895 18.832 123.263 19.136C123.631 19.44 123.951 19.88 124.223 20.456C124.559 19.832 124.983 19.376 125.495 19.088C126.023 18.784 126.687 18.632 127.487 18.632C127.967 18.632 128.351 18.696 128.639 18.824C128.943 18.936 129.191 19.104 129.383 19.328C129.575 19.536 129.815 19.856 130.103 20.288C130.519 19.776 131.039 19.376 131.663 19.088C132.303 18.8 132.959 18.656 133.631 18.656C134.415 18.656 135.127 18.984 135.767 19.64C136.423 20.296 136.863 21.04 137.087 21.872C137.167 22.224 137.223 23.056 137.255 24.368L137.351 25.76C137.431 26.608 137.703 27.112 138.167 27.272C138.391 27.336 138.575 27.416 138.719 27.512C138.879 27.592 138.959 27.68 138.959 27.776C138.991 28.16 138.903 28.44 138.695 28.616C138.551 28.712 138.351 28.816 138.095 28.928C137.839 29.04 137.639 29.096 137.495 29.096C136.631 29.096 136.015 28.784 135.647 28.16C135.407 27.744 135.255 27.272 135.191 26.744C135.127 26.2 135.095 25.464 135.095 24.536C135.095 23.544 134.975 22.696 134.735 21.992C134.495 21.272 133.951 20.912 133.103 20.912C132.799 20.912 132.495 21.008 132.191 21.2C131.903 21.376 131.695 21.6 131.567 21.872C131.343 22.304 131.191 22.776 131.111 23.288C131.031 23.784 130.991 24.36 130.991 25.016C130.991 25.432 131.015 25.856 131.063 26.288C131.063 26.416 131.071 26.624 131.087 26.912C131.119 27.184 131.135 27.432 131.135 27.656C131.135 28.056 131.055 28.4 130.895 28.688C130.751 28.96 130.495 29.096 130.127 29.096C129.247 29.096 128.783 28.632 128.735 27.704C128.735 27.048 128.743 26.696 128.759 26.648V25.616C128.759 25.04 128.735 24.48 128.687 23.936C128.639 23.392 128.583 22.984 128.519 22.712C128.375 22.184 128.183 21.776 127.943 21.488C127.703 21.2 127.335 21.056 126.839 21.056C126.503 21.056 126.191 21.136 125.903 21.296C125.615 21.456 125.367 21.68 125.159 21.968C124.855 22.448 124.655 23.032 124.559 23.72C124.463 24.6 124.391 25.296 124.343 25.808C124.311 26.304 124.295 26.88 124.295 27.536C124.295 28 124.215 28.376 124.055 28.664C123.911 28.952 123.631 29.096 123.215 29.096C122.911 29.096 122.591 29.016 122.255 28.856C121.935 28.68 121.775 28.448 121.775 28.16C121.775 27.856 121.807 27.552 121.871 27.248C122.015 26.336 122.087 24.784 122.087 22.592C122.087 22.24 122.007 21.896 121.847 21.56C121.703 21.208 121.519 20.936 121.295 20.744ZM155.151 24.776L155.247 22.928C155.247 22.256 155.167 21.76 155.007 21.44C154.863 21.12 154.527 20.96 153.999 20.96C152.991 20.96 152.231 21.528 151.719 22.664C151.207 23.784 150.951 25.424 150.951 27.584C150.951 27.68 150.951 27.88 150.951 28.184C150.967 28.472 150.919 28.696 150.807 28.856C150.711 29.016 150.535 29.096 150.279 29.096C149.639 29.096 149.207 28.92 148.983 28.568C148.759 28.216 148.647 27.696 148.647 27.008C148.647 26.656 148.695 25.936 148.791 24.848C148.871 24.08 148.911 23.544 148.911 23.24C148.911 22.44 148.791 21.856 148.551 21.488C148.311 21.12 147.895 20.936 147.303 20.936C146.615 20.936 146.047 21.28 145.599 21.968C145.151 22.656 144.823 23.512 144.615 24.536C144.407 25.544 144.303 26.544 144.303 27.536C144.303 28 144.223 28.376 144.063 28.664C143.919 28.952 143.639 29.096 143.223 29.096C142.919 29.096 142.615 29.016 142.311 28.856C142.007 28.68 141.855 28.448 141.855 28.16C141.855 27.856 141.887 27.552 141.951 27.248C142.031 26.752 142.095 26.024 142.143 25.064C142.191 24.104 142.215 23.2 142.215 22.352C142.215 21.968 142.119 21.6 141.927 21.248C141.751 20.88 141.535 20.696 141.279 20.696C141.215 20.696 141.095 20.728 140.919 20.792C140.759 20.856 140.639 20.888 140.559 20.888C140.351 20.888 140.159 20.792 139.983 20.6C139.823 20.408 139.743 20.248 139.743 20.12C139.743 19.72 139.935 19.384 140.319 19.112C140.719 18.824 141.135 18.68 141.567 18.68C142.159 18.68 142.671 18.88 143.103 19.28C143.551 19.68 143.887 20.216 144.111 20.888C144.495 20.2 144.943 19.664 145.455 19.28C145.983 18.88 146.623 18.68 147.375 18.68C148.751 18.68 149.751 19.296 150.375 20.528C150.743 19.936 151.311 19.48 152.079 19.16C152.863 18.84 153.631 18.68 154.383 18.68C154.927 18.68 155.447 18.848 155.943 19.184C156.439 19.504 156.831 19.936 157.119 20.48C157.423 21.008 157.575 21.56 157.575 22.136C157.575 22.504 157.535 23.312 157.455 24.56C157.439 24.768 157.423 25 157.407 25.256C157.391 25.496 157.383 25.752 157.383 26.024C157.383 26.36 157.463 26.632 157.623 26.84C157.799 27.048 158.023 27.176 158.295 27.224C158.839 27.352 159.111 27.576 159.111 27.896C159.111 28.264 158.943 28.56 158.607 28.784C158.271 28.992 157.895 29.096 157.479 29.096C156.695 29.096 156.095 28.872 155.679 28.424C155.279 27.96 155.079 27.296 155.079 26.432L155.151 24.776ZM160.643 23.576C160.643 23 160.747 22.464 160.955 21.968C161.163 21.456 161.467 20.928 161.867 20.384C162.267 19.84 162.819 19.416 163.523 19.112C164.227 18.792 164.995 18.632 165.827 18.632C166.467 18.632 167.083 18.768 167.675 19.04C168.283 19.296 168.827 19.616 169.307 20C169.371 20.112 169.483 20.32 169.643 20.624C169.803 20.912 169.915 21.176 169.979 21.416C170.059 21.656 170.099 21.904 170.099 22.16C170.099 23.232 169.707 23.952 168.923 24.32C168.139 24.672 167.147 24.848 165.947 24.848C164.747 24.848 163.771 24.768 163.019 24.608C163.051 24.912 163.131 25.216 163.259 25.52C163.387 25.824 163.539 26.056 163.715 26.216C164.035 26.52 164.347 26.72 164.651 26.816C164.971 26.896 165.395 26.936 165.923 26.936C166.723 26.936 167.347 26.784 167.795 26.48C168.211 26.208 168.531 26.072 168.755 26.072C169.059 26.072 169.291 26.168 169.451 26.36C169.611 26.536 169.691 26.768 169.691 27.056C169.691 27.664 169.299 28.16 168.515 28.544C167.747 28.928 166.875 29.12 165.898 29.12C165.131 29.12 164.371 28.984 163.619 28.712C162.867 28.44 162.267 28.056 161.819 27.56C161.515 27.048 161.243 26.424 161.003 25.688C160.763 24.952 160.643 24.248 160.643 23.576ZM165.923 20.6C165.571 20.6 165.203 20.664 164.819 20.792C164.451 20.904 164.163 21.08 163.955 21.32C163.699 21.592 163.507 21.84 163.379 22.064C163.267 22.288 163.195 22.568 163.163 22.904C163.339 22.904 163.507 22.912 163.667 22.928C163.827 22.944 163.979 22.96 164.123 22.976C164.827 23.04 165.355 23.072 165.707 23.072C166.411 23.072 166.947 22.968 167.315 22.76C167.699 22.552 167.891 22.272 167.891 21.92C167.891 21.584 167.675 21.28 167.243 21.008C166.827 20.736 166.387 20.6 165.923 20.6ZM175.965 28.04C175.965 28.312 175.861 28.552 175.653 28.76C175.445 28.968 175.189 29.072 174.885 29.072C174.405 29.072 174.053 28.984 173.829 28.808C173.605 28.616 173.493 28.272 173.493 27.776C173.493 27.184 173.477 26.408 173.445 25.448C173.413 24.648 173.397 23.976 173.397 23.432C173.397 23.176 173.413 22.84 173.445 22.424C173.477 22.04 173.493 21.752 173.493 21.56C173.445 21.256 173.325 21.008 173.133 20.816C172.941 20.608 172.693 20.504 172.389 20.504C172.245 20.504 172.125 20.44 172.029 20.312C171.933 20.168 171.885 20.024 171.885 19.88C171.885 19.512 172.029 19.232 172.317 19.04C172.621 18.848 172.981 18.752 173.397 18.752C174.261 18.752 174.861 19.264 175.197 20.288C175.613 19.808 176.085 19.424 176.613 19.136C177.157 18.832 177.677 18.68 178.173 18.68C178.765 18.68 179.301 18.84 179.781 19.16C180.277 19.48 180.525 19.912 180.525 20.456C180.525 20.76 180.389 21.072 180.117 21.392C179.861 21.712 179.597 21.872 179.325 21.872C179.181 21.872 179.053 21.84 178.941 21.776C178.845 21.696 178.725 21.584 178.581 21.44C178.421 21.28 178.285 21.168 178.173 21.104C178.061 21.024 177.933 20.984 177.789 20.984C177.533 20.984 177.293 21.024 177.069 21.104C176.845 21.184 176.693 21.28 176.613 21.392C176.357 21.792 176.165 22.152 176.037 22.472C175.925 22.792 175.869 23.136 175.869 23.504C175.869 23.776 175.861 23.992 175.845 24.152L175.821 25.52C175.821 25.728 175.829 25.96 175.845 26.216C175.861 26.472 175.877 26.664 175.893 26.792C175.941 27.224 175.965 27.64 175.965 28.04ZM189.416 21.728C189.176 21.728 188.968 21.672 188.792 21.56C188.632 21.432 188.464 21.264 188.288 21.056C188.112 20.848 187.92 20.712 187.712 20.648C187.52 20.584 187.296 20.552 187.04 20.552C186.576 20.552 186.12 20.696 185.672 20.984C185.24 21.256 184.88 21.64 184.592 22.136C184.32 22.632 184.184 23.184 184.184 23.792C184.184 24.464 184.312 25.024 184.568 25.472C184.84 25.92 185.264 26.312 185.84 26.648C186.048 26.76 186.288 26.848 186.56 26.912C186.848 26.976 187.096 27.008 187.304 27.008C187.8 27.008 188.44 26.792 189.224 26.36C189.288 26.328 189.408 26.272 189.584 26.192C189.776 26.096 189.92 26.048 190.016 26.048C190.192 26.048 190.392 26.136 190.616 26.312C190.84 26.472 190.952 26.672 190.952 26.912C190.952 27.392 190.744 27.8 190.328 28.136C189.928 28.472 189.424 28.72 188.816 28.88C188.208 29.04 187.608 29.12 187.016 29.12C186.072 29.12 185.192 28.904 184.376 28.472C183.56 28.04 182.912 27.44 182.432 26.672C181.952 25.904 181.712 25.04 181.712 24.08C181.712 23.04 181.944 22.104 182.408 21.272C182.872 20.424 183.496 19.76 184.28 19.28C185.08 18.784 185.944 18.536 186.872 18.536C187.768 18.536 188.592 18.712 189.344 19.064C190.112 19.416 190.496 19.952 190.496 20.672C190.496 21.376 190.136 21.728 189.416 21.728ZM192.682 23.912C192.682 23.304 192.794 22.696 193.018 22.088C193.242 21.464 193.538 20.896 193.906 20.384C194.274 19.872 194.858 19.456 195.658 19.136C196.458 18.8 197.17 18.632 197.794 18.632C198.434 18.632 199.082 18.72 199.738 18.896C200.41 19.072 200.874 19.344 201.13 19.712C201.722 20.544 202.018 21.36 202.018 22.16C202.018 22.592 201.922 22.96 201.73 23.264C201.554 23.568 201.298 23.896 200.962 24.248C200.69 24.536 200.258 24.728 199.666 24.824C199.09 24.92 198.514 24.968 197.938 24.968C197.57 24.968 197.122 24.936 196.594 24.872C196.066 24.792 195.554 24.696 195.058 24.584C195.09 24.904 195.17 25.216 195.298 25.52C195.426 25.824 195.578 26.056 195.754 26.216C196.074 26.52 196.402 26.712 196.738 26.792C197.09 26.872 197.538 26.912 198.082 26.912C198.658 26.912 199.194 26.816 199.69 26.624C200.09 26.48 200.418 26.408 200.674 26.408C200.978 26.408 201.21 26.504 201.37 26.696C201.53 26.872 201.61 27.104 201.61 27.392C201.61 27.792 201.378 28.12 200.914 28.376C200.45 28.632 199.914 28.824 199.306 28.952C198.714 29.064 198.234 29.12 197.866 29.12C197.114 29.12 196.386 28.984 195.682 28.712C194.978 28.44 194.394 28.056 193.93 27.56C193.546 27.112 193.242 26.576 193.018 25.952C192.794 25.312 192.682 24.632 192.682 23.912ZM197.914 20.672C197.562 20.672 197.21 20.744 196.858 20.888C196.506 21.016 196.218 21.2 195.994 21.44C195.706 21.744 195.506 21.992 195.394 22.184C195.298 22.36 195.234 22.608 195.202 22.928C195.602 23.056 196.434 23.12 197.698 23.12C198.386 23.12 198.914 23.016 199.282 22.808C199.666 22.6 199.858 22.328 199.858 21.992C199.858 21.656 199.65 21.352 199.234 21.08C198.818 20.808 198.378 20.672 197.914 20.672Z" fill="white"/>
</g>
</svg>
