<svg width="491" height="409" viewBox="0 0 491 409" fill="none" xmlns="http://www.w3.org/2000/svg">
<g clip-path="url(#clip0_65_11)">
<path d="M122.523 314.76H474.924C476.942 314.76 478.941 314.363 480.805 313.59C482.67 312.817 484.364 311.684 485.791 310.256C487.218 308.828 488.35 307.133 489.122 305.268C489.894 303.402 490.292 301.402 490.292 299.383V95.4706C490.294 94.1078 490.113 92.7508 489.753 91.4366C488.869 88.1789 486.938 85.303 484.258 83.2528C481.578 81.2027 478.298 80.0923 474.924 80.0931H337.281C334.07 85.5053 332.091 91.5594 331.485 97.8243C329.778 116.038 340.214 132.875 349.552 148.607C358.891 164.339 367.797 182.631 362.851 200.248C359.507 212.131 350.445 220.73 339.201 225.884C328.397 230.669 316.512 232.48 304.774 231.131C297.725 230.24 290.781 228.653 284.043 226.395C275.208 223.524 266.578 219.802 257.963 216.037C257.956 216.037 257.956 216.037 257.949 216.03C257.8 215.966 257.644 215.895 257.495 215.831C250.828 212.917 244.168 209.997 237.409 207.423C229.489 204.324 221.269 202.057 212.88 200.659C200.134 198.66 187.282 199.383 175.91 205.168C157.375 214.591 147.442 234.952 139.669 254.25C131.819 273.761 124.784 293.924 122.523 314.76Z" fill="#3942F7"/>
<path d="M0.708496 236.753V299.383C0.708387 301.402 1.1058 303.402 1.87806 305.267C2.65032 307.133 3.78229 308.828 5.20934 310.256C6.63638 311.684 8.33053 312.817 10.1951 313.59C12.0596 314.363 14.058 314.76 16.0762 314.76H74.6561C75.6692 305.31 74.819 295.895 71.0993 287.11C62.9939 267.954 43.3823 256.625 24.6846 247.529C16.8272 243.708 8.83515 240.021 0.708496 236.753Z" fill="#3942F7"/>
<path d="M62.0991 300.297V300.297C62.0991 304.376 63.7182 308.287 66.6002 311.171C69.4822 314.055 73.391 315.675 77.4668 315.675H136.047C137.06 306.224 136.21 296.809 132.49 288.025C130.584 283.521 126.133 278.532 120.333 273.493C97.5765 253.721 62.0991 270.14 62.0991 300.297Z" fill="#3942F7"/>
<path d="M0 299.382V95.4705C0.00483064 91.2056 1.70011 87.1168 4.71393 84.1011C7.72774 81.0853 11.814 79.389 16.0761 79.3842H474.924C479.186 79.389 483.272 81.0853 486.286 84.1011C489.3 87.1168 490.995 91.2056 491 95.4705V299.382C490.995 303.647 489.3 307.736 486.286 310.752C483.272 313.768 479.186 315.464 474.924 315.469H16.0761C11.8139 315.464 7.72764 313.768 4.71382 310.752C1.7 307.736 0.00475749 303.647 0 299.382V299.382ZM16.0761 80.8021C12.1896 80.8064 8.46355 82.3532 5.71538 85.1032C2.9672 87.8531 1.42137 91.5815 1.41703 95.4705V299.382C1.4213 303.271 2.96709 307 5.71527 309.75C8.46345 312.5 12.1896 314.047 16.0761 314.051H474.924C478.81 314.047 482.537 312.5 485.285 309.75C488.033 307 489.579 303.271 489.583 299.382V95.4705C489.579 91.5815 488.033 87.8531 485.285 85.1032C482.536 82.3532 478.81 80.8064 474.924 80.8021H16.0761Z" fill="#3F3D56"/>
<path d="M151.842 314.257H172.679C176.243 302.249 181.387 289.522 186.084 277.923C195.097 255.684 206.61 232.219 228.099 221.361C237.274 216.724 247.279 214.913 257.495 215.012C271.609 215.146 286.119 218.937 299.404 223.961C304.838 226.011 310.223 228.266 315.586 230.57C335.793 239.259 355.78 248.722 377.511 251.28C405.008 254.515 437.337 242.204 444.848 215.688C450.58 195.387 440.256 174.311 429.43 156.18C418.604 138.049 406.503 118.65 408.48 97.6586C408.487 97.5882 408.494 97.5106 408.508 97.4402C409.252 89.9003 413.751 84.4817 420.036 81.0078H392.673C392.311 100.59 403.633 117.875 413.822 134.942C424.648 153.066 434.971 174.149 429.239 194.45C421.729 220.959 359.54 189.885 332.043 186.643C324.278 185.734 336.613 188.969 329.209 186.643C317.596 183 316.309 216.414 305.008 211.51C297.973 208.451 290.93 205.414 283.795 202.716C280.841 201.595 277.823 200.545 274.769 199.573C274.762 199.573 274.762 199.573 274.755 199.566C254.25 193.069 231.826 190.539 212.88 199.932C212.753 199.995 212.618 200.059 212.491 200.122C191.001 210.974 179.488 234.439 170.476 256.678C163.029 275.062 155.512 294.865 151.842 314.257Z" fill="#3F3D56"/>
<path d="M152.068 168.103H16.5355C15.4249 168.103 14.3598 168.544 13.5746 169.33C12.7893 170.116 12.3481 171.181 12.3481 172.293C12.3481 173.404 12.7893 174.47 13.5746 175.255C14.3598 176.041 15.4249 176.482 16.5355 176.482H152.068C153.179 176.482 154.244 176.041 155.029 175.255C155.814 174.47 156.256 173.404 156.256 172.293C156.256 171.181 155.814 170.116 155.029 169.33C154.244 168.544 153.179 168.103 152.068 168.103V168.103Z" fill="#3F3D56"/>
<path d="M58.6519 144.609H16.6297C15.5192 144.609 14.4541 145.05 13.6688 145.836C12.8836 146.622 12.4424 147.687 12.4424 148.799C12.4424 149.91 12.8836 150.976 13.6688 151.762C14.4541 152.547 15.5192 152.989 16.6297 152.989H58.652C59.7625 152.989 60.8276 152.547 61.6129 151.762C62.3981 150.976 62.8393 149.91 62.8393 148.799C62.8393 147.687 62.3981 146.622 61.6129 145.836C60.8276 145.05 59.7625 144.609 58.652 144.609H58.6519Z" fill="#3F3D56"/>
<path d="M220.7 389.877L212.11 389.805L208.309 355.88L220.985 355.987L220.7 389.877Z" fill="#FFB6B6"/>
<path d="M193.187 403.544C193.179 404.563 193.576 405.544 194.29 406.27C195.004 406.997 195.976 407.411 196.994 407.421L214.072 407.563L217.062 401.499L218.16 407.594L224.604 407.653L222.977 385.915L220.735 385.765L211.59 385.135L208.64 384.937L208.589 391.087L194.87 400.398C194.356 400.747 193.934 401.216 193.641 401.764C193.348 402.312 193.192 402.923 193.187 403.544V403.544Z" fill="#2F2E41"/>
<path d="M307.848 389.877L299.258 389.805L295.456 355.88L308.133 355.987L307.848 389.877Z" fill="#FFB6B6"/>
<path d="M280.334 403.544C280.326 404.563 280.723 405.544 281.437 406.27C282.151 406.997 283.123 407.411 284.141 407.421L301.219 407.563L304.209 401.499L305.307 407.594L311.751 407.653L310.124 385.915L307.882 385.765L298.737 385.135L295.787 384.937L295.735 391.087L282.017 400.398C281.503 400.747 281.081 401.216 280.788 401.764C280.495 402.312 280.339 402.923 280.334 403.544Z" fill="#2F2E41"/>
<path d="M210.104 118.199L248.763 88.4286C250.397 87.1625 251.468 85.3043 251.745 83.2549C252.022 81.2055 251.482 79.1294 250.243 77.4744C249.602 76.6183 248.793 75.9018 247.866 75.3686C246.939 74.8354 245.914 74.4967 244.852 74.3731C243.79 74.2495 242.714 74.3436 241.689 74.6497C240.665 74.9558 239.713 75.4675 238.893 76.1535L199.684 108.309L175.036 126.843C173.816 126.134 172.408 125.817 171.002 125.936C169.596 126.056 168.261 126.605 167.178 127.51C166.095 128.415 165.317 129.632 164.949 130.995C164.581 132.358 164.642 133.801 165.122 135.128C165.602 136.456 166.48 137.603 167.634 138.414C168.789 139.225 170.165 139.661 171.576 139.663C172.987 139.664 174.364 139.23 175.52 138.421C176.676 137.612 177.556 136.467 178.039 135.14L210.104 118.199Z" fill="#FFB6B6"/>
<path d="M241.613 125.042L239.909 163.124L297.784 170.131C293.23 154.83 285.762 133.576 289.184 122.927L241.613 125.042Z" fill="#A0616A"/>
<path d="M274.511 55.2286H256.683L249.027 68.3381L245.379 68.1365C238.269 70.8766 235.435 73.7124 231.511 81.268L217.722 92.8545L228.35 105.616C235.691 104.412 238.337 98.7107 236.006 88.2392C236.006 88.2392 227.968 102.258 239.547 109.154C239.547 109.154 237.482 122.148 239.547 122.009C241.613 121.869 246.37 119.224 241.613 121.869C236.855 124.514 237.67 124.628 237.826 125.485C240.395 139.646 242.52 150.281 242.52 150.281L292.825 155.243C292.825 155.243 289.926 124.802 290.084 123.071C290.241 121.34 289.184 125.571 290.241 121.34C291.298 117.109 292.884 118.696 291.298 117.109C289.713 115.522 302.199 114.156 297.326 106.531L313.622 102.277L304.513 80.6141C304.513 73.2998 292.773 67.3705 285.463 67.3705H284.527L274.511 55.2286Z" fill="#E6E6E6"/>
<path d="M293.483 149.491C273.802 156.265 256.085 154.778 241.103 141.773C241.103 141.773 236.887 157.37 232.619 155.243C228.35 153.116 230.46 159.068 229.287 161.25C228.042 163.566 229.487 167.474 225.376 168.803C221.265 170.131 222.809 174.036 221.478 176.91C212.164 197.019 201.527 225.484 194.341 261.588C186.957 298.687 204.969 360.843 204.969 360.843L221.973 359.425L226.224 278.603L245.668 244.441C245.668 244.441 255.22 238.875 249.224 236.052C243.229 233.229 247.245 229.731 251.614 230.417C255.982 231.102 260.942 208.416 260.942 208.416C254.713 224.078 293.533 362.261 293.533 362.261L309.829 360.843L300.618 168.005L293.483 149.491Z" fill="#2F2E41"/>
<path d="M285.091 22.317C287.024 27.1331 292.476 36.6044 293.215 41.7712L292.882 41.4441C292.248 42.5279 291.528 43.5587 290.728 44.5265C289.294 43.0198 287.562 41.8284 285.643 41.0282C286.691 43.1799 287.298 45.5198 287.428 47.9099C283.879 51.0027 274.814 49.1367 270.285 50.785C262.997 53.4309 255.259 54.3728 247.619 55.1551C244.908 55.4344 241.872 55.604 239.972 54.0006C238.071 52.3971 239.203 49.4278 238.181 47.1819C230.898 31.1845 237.619 25.4127 243.329 18.1589C244.586 16.5626 244.58 14.1804 246.109 12.6573C248.231 10.5462 251.483 9.89685 254.481 9.37669C253.703 9.41774 252.926 9.25749 252.227 8.91134C251.528 8.56519 250.93 8.04481 250.49 7.40028C250.104 6.75092 249.905 6.00754 249.915 5.25214C249.924 4.49673 250.142 3.75866 250.544 3.11931C251.617 1.3404 253.845 0.305947 255.995 0.0475222C258.113 -0.0963887 260.24 0.0866056 262.302 0.590085C263.638 0.7659 264.932 1.17964 266.122 1.81174C266.684 2.11153 267.14 2.57571 267.431 3.14222C267.722 3.70872 267.833 4.35055 267.749 4.98191C267.57 5.56495 267.262 6.09999 266.847 6.54714C266.433 6.99429 265.923 7.342 265.355 7.56436C264.49 7.93051 263.579 8.17987 262.648 8.30587C266.925 7.75048 271.27 8.51144 275.104 10.4875C279.91 13.0524 283.152 17.5033 285.091 22.317Z" fill="#2F2E41"/>
<path d="M259.071 49.3184C268.558 49.3184 276.249 41.623 276.249 32.1302C276.249 22.6374 268.558 14.942 259.071 14.942C249.585 14.942 241.894 22.6374 241.894 32.1302C241.894 41.623 249.585 49.3184 259.071 49.3184Z" fill="#FFB6B6"/>
<path d="M275.6 22.9142C274.604 25.9262 271.758 26.8967 269.128 27.5021C268.298 27.6955 267.464 27.8758 266.621 28.0362C266.311 27.6474 265.98 27.2664 265.635 26.9063C264.201 25.3995 262.47 24.2081 260.55 23.4079C261.38 25.1076 261.932 26.9297 262.184 28.8045C260.594 29.0354 258.994 29.224 257.387 29.3705C256.026 29.6603 254.606 29.416 253.421 28.6881C252.235 27.9602 251.375 26.8044 251.016 25.4596C249.553 27.8548 247.822 30.1106 245.455 31.062C244.101 31.5487 242.628 31.5887 241.25 31.1762C239.872 30.7637 238.662 29.9204 237.798 28.77C236.381 27.0395 235.591 24.7148 235.023 22.4711C234.352 19.8039 233.979 16.7313 235.298 15.039C236.354 13.6694 238.177 13.6448 239.858 13.7664C243.57 14.0513 247.242 14.7175 250.818 15.7545L251.12 16.4355C250.506 12.7418 251.839 9.18804 254.305 7.92418C255.968 7.07915 257.969 7.22084 259.913 7.39227C262.411 7.50378 264.879 7.98131 267.238 8.80962C269.944 9.85126 272.262 11.7042 273.876 14.1148C275.602 16.7369 276.46 20.3131 275.6 22.9142Z" fill="#2F2E41"/>
<path d="M251.113 6.84925C251.282 6.79918 250.843 6.86349 250.995 6.86757C250.92 6.86318 250.844 6.85265 250.771 6.83608C250.758 6.83356 250.587 6.77895 250.701 6.81906C250.445 6.74273 250.218 6.59412 250.045 6.39118C249.642 5.8919 249.325 5.32816 249.109 4.72363C248.836 3.92476 248.397 3.19268 247.821 2.57546C247.658 2.41123 247.458 2.28788 247.238 2.21541C247.018 2.14293 246.784 2.12339 246.555 2.15835C246.326 2.19332 246.109 2.28182 245.921 2.41666C245.732 2.55151 245.578 2.72888 245.471 2.93441C245.137 3.6749 245.442 4.58726 245.681 5.31454C245.927 6.07019 246.294 6.78115 246.766 7.42001C247.558 8.46472 248.636 9.25639 249.87 9.69856C251.298 10.2175 252.855 10.262 254.31 9.82552C254.502 9.74572 254.667 9.61169 254.784 9.43976C254.902 9.26784 254.967 9.06544 254.971 8.85723C254.976 8.64901 254.92 8.44396 254.81 8.26708C254.7 8.09019 254.541 7.94909 254.353 7.86097L251.926 6.86698C251.798 6.81073 251.661 6.78021 251.521 6.77717C251.381 6.77412 251.243 6.79861 251.113 6.84922C250.983 6.89984 250.864 6.9756 250.763 7.07217C250.662 7.16875 250.581 7.28425 250.525 7.41208C250.469 7.53991 250.438 7.67757 250.435 7.81719C250.432 7.95681 250.457 8.09567 250.507 8.22583C250.558 8.35599 250.634 8.47491 250.73 8.57579C250.827 8.67667 250.942 8.75755 251.07 8.81379L253.497 9.80775L253.539 7.84322C253.237 7.93068 252.925 7.98399 252.611 8.00216C252.275 8.0358 251.936 8.0215 251.604 7.9597C251.287 7.91802 250.974 7.84185 250.673 7.73252C250.48 7.66202 250.291 7.58178 250.106 7.49209C250.039 7.45948 249.973 7.42562 249.907 7.39052C249.912 7.39305 249.629 7.22852 249.753 7.30583C249.439 7.10513 249.145 6.87558 248.873 6.62018C248.778 6.52961 248.689 6.43135 248.61 6.3264C248.471 6.15644 248.343 5.97855 248.226 5.79363C247.987 5.40205 247.797 4.98218 247.662 4.54373C247.6 4.35946 247.548 4.1721 247.506 3.98241C247.494 3.87829 247.475 3.77508 247.45 3.67352C247.36 3.43154 247.467 3.81483 247.363 3.91968L246.916 4.24952C246.832 4.27457 246.743 4.28038 246.657 4.26651C246.57 4.25264 246.488 4.21946 246.416 4.16942C246.363 4.09479 246.374 4.10717 246.451 4.20656C246.539 4.32352 246.62 4.44599 246.693 4.57323C246.854 4.87278 246.999 5.18028 247.128 5.49455C247.395 6.16292 247.733 6.80086 248.135 7.3975C248.529 8.00098 249.104 8.4645 249.777 8.722C250.45 8.97951 251.187 9.01785 251.883 8.83156C252.144 8.72749 252.354 8.52484 252.467 8.2673C252.581 8.00977 252.588 7.71802 252.488 7.45499C252.382 7.19576 252.179 6.98791 251.922 6.87499C251.666 6.76208 251.376 6.75285 251.113 6.84925V6.84925Z" fill="#2F2E41"/>
<path d="M224.322 193.594C252.373 193.594 275.112 170.84 275.112 142.772C275.112 114.704 252.373 91.9501 224.322 91.9501C196.272 91.9501 173.532 114.704 173.532 142.772C173.532 170.84 196.272 193.594 224.322 193.594Z" fill="white"/>
<path d="M224.322 194.303C214.136 194.303 204.18 191.281 195.711 185.619C187.242 179.957 180.641 171.909 176.743 162.492C172.846 153.076 171.826 142.715 173.813 132.719C175.8 122.723 180.705 113.541 187.907 106.334C195.109 99.1277 204.285 94.2198 214.275 92.2314C224.264 90.2431 234.619 91.2635 244.029 95.1637C253.439 99.0639 261.482 105.669 267.141 114.143C272.8 122.617 275.82 132.58 275.82 142.772C275.805 156.434 270.374 169.532 260.719 179.193C251.065 188.854 237.975 194.288 224.322 194.303V194.303ZM224.322 92.6592C214.416 92.6592 204.734 95.5983 196.498 101.105C188.262 106.611 181.843 114.438 178.052 123.595C174.262 132.752 173.27 142.828 175.203 152.549C177.135 162.27 181.905 171.199 188.909 178.208C195.913 185.216 204.837 189.989 214.551 191.923C224.266 193.856 234.336 192.864 243.487 189.071C252.638 185.278 260.46 178.855 265.963 170.613C271.466 162.372 274.403 152.683 274.403 142.772C274.388 129.486 269.107 116.748 259.718 107.353C250.329 97.9586 237.599 92.6741 224.322 92.6592V92.6592Z" fill="#3F3D56"/>
<path d="M217.393 169.223C216.516 169.223 215.651 169.018 214.866 168.626C214.082 168.233 213.4 167.663 212.874 166.961L199.017 148.474C198.572 147.88 198.248 147.204 198.064 146.485C197.88 145.766 197.84 145.017 197.945 144.282C198.049 143.548 198.298 142.841 198.676 142.202C199.054 141.563 199.554 141.005 200.148 140.56C200.741 140.114 201.417 139.79 202.135 139.606C202.854 139.422 203.602 139.381 204.336 139.486C205.071 139.591 205.777 139.84 206.416 140.218C207.054 140.596 207.612 141.096 208.057 141.69L217.122 153.784L240.405 118.838C240.817 118.22 241.346 117.69 241.962 117.277C242.579 116.864 243.27 116.576 243.998 116.43C244.725 116.285 245.475 116.284 246.202 116.428C246.93 116.572 247.623 116.858 248.24 117.27C248.857 117.682 249.387 118.211 249.8 118.828C250.213 119.445 250.5 120.137 250.646 120.865C250.792 121.593 250.792 122.343 250.648 123.071C250.504 123.799 250.218 124.492 249.807 125.11L222.094 166.705C221.593 167.457 220.919 168.078 220.128 168.516C219.338 168.954 218.453 169.196 217.55 169.221C217.498 169.222 217.445 169.223 217.393 169.223Z" fill="#3942F7"/>
<path d="M168.377 408.156C168.377 408.267 168.398 408.377 168.44 408.48C168.483 408.582 168.545 408.675 168.623 408.754C168.702 408.832 168.795 408.894 168.897 408.937C169 408.979 169.109 409 169.22 409H348.68C348.903 409 349.118 408.911 349.276 408.753C349.434 408.595 349.523 408.38 349.523 408.156C349.523 407.933 349.434 407.718 349.276 407.56C349.118 407.402 348.903 407.313 348.68 407.313H169.22C169.109 407.312 169 407.334 168.897 407.376C168.795 407.419 168.702 407.481 168.623 407.559C168.545 407.638 168.483 407.731 168.44 407.833C168.398 407.936 168.377 408.046 168.377 408.156Z" fill="#CCCCCC"/>
<path d="M327.27 144.51L310.667 98.6124C309.958 96.67 308.514 95.0844 306.647 94.1978C304.78 93.3113 302.639 93.1949 300.687 93.8737V93.8737C299.677 94.2249 298.749 94.7782 297.96 95.4999C297.171 96.2216 296.537 97.0966 296.097 98.0715C295.656 99.0464 295.419 100.101 295.399 101.17C295.38 102.24 295.578 103.303 295.982 104.293L314.689 151.441L324.849 180.569C323.803 181.516 323.073 182.763 322.76 184.139C322.446 185.516 322.564 186.956 323.097 188.263C323.629 189.57 324.551 190.682 325.737 191.446C326.923 192.211 328.316 192.592 329.726 192.537C331.136 192.482 332.494 191.995 333.618 191.14C334.741 190.286 335.574 189.106 336.004 187.761C336.433 186.417 336.439 184.972 336.02 183.624C335.601 182.276 334.777 181.09 333.66 180.227L327.27 144.51Z" fill="#FFB6B6"/>
<path d="M302.285 78.172L315.747 102.277C315.747 102.277 284.723 112.906 284.648 111.136C284.572 109.366 286.189 84.8094 286.189 84.8094L302.285 78.172Z" fill="#E6E6E6"/>
</g>
<defs>
<clipPath id="clip0_65_11">
<rect width="491" height="409" fill="white"/>
</clipPath>
</defs>
</svg>
