<svg width="40" height="40" viewBox="0 0 40 40" fill="none" xmlns="http://www.w3.org/2000/svg">
<g clip-path="url(#clip0_5_44)">
<path d="M11.6667 30C9.83341 30 8.35008 31.5 8.35008 33.3333C8.35008 35.1667 9.83341 36.6667 11.6667 36.6667C13.5001 36.6667 15.0001 35.1667 15.0001 33.3333C15.0001 31.5 13.5001 30 11.6667 30ZM1.66675 3.33334V6.66668H5.00008L11.0001 19.3167L8.75008 23.4C8.48341 23.8667 8.33341 24.4167 8.33341 25C8.33341 26.8333 9.83341 28.3333 11.6667 28.3333H31.6667V25H12.3667C12.1334 25 11.9501 24.8167 11.9501 24.5833L12.0001 24.3833L13.5001 21.6667H25.9167C27.1667 21.6667 28.2667 20.9833 28.8334 19.95L34.8001 9.13334C34.9334 8.90001 35.0001 8.61668 35.0001 8.33334C35.0001 7.41668 34.2501 6.66668 33.3334 6.66668H8.68341L7.11675 3.33334H1.66675ZM28.3334 30C26.5001 30 25.0167 31.5 25.0167 33.3333C25.0167 35.1667 26.5001 36.6667 28.3334 36.6667C30.1667 36.6667 31.6667 35.1667 31.6667 33.3333C31.6667 31.5 30.1667 30 28.3334 30Z" fill="#EDF2F7"/>
</g>
<defs>
<clipPath id="clip0_5_44">
<rect width="40" height="40" fill="white"/>
</clipPath>
</defs>
</svg>
